<?xml version="1.0" encoding="UTF-8" standalone="no"?>
<!DOCTYPE svg PUBLIC "-//W3C//DTD SVG 20010904//EN"
              "http://www.w3.org/TR/2001/REC-SVG-20010904/DTD/svg10.dtd">

<svg xmlns="http://www.w3.org/2000/svg" width="200" height="200" viewBox="0 0 200 200">
	<rect x="30" y="40" width="45" height="100" rx="5" ry="5" fill="none" stroke="black" stroke-width="5" />
	<rect x="115" y="40" width="45" height="100" rx="5" ry="5" fill="none" stroke="black" stroke-width="5" />
	
	<line x1="40" y1="55" x2="65" y2="55" stroke-width="6" stroke="black" stroke-linecap="round" />
	<line x1="40" y1="68" x2="65" y2="68" stroke-width="6" stroke="black" stroke-linecap="round" />
	<line x1="40" y1="81" x2="65" y2="81" stroke-width="6" stroke="black" stroke-linecap="round" />
	<line x1="40" y1="94" x2="65" y2="94" stroke-width="6" stroke="black" stroke-linecap="round" />
	
	<line x1="125" y1="55" x2="150" y2="55" stroke-width="6" stroke="black" stroke-linecap="round" />
	<line x1="125" y1="68" x2="150" y2="68" stroke-width="6" stroke="black" stroke-linecap="round" />
	<line x1="125" y1="81" x2="150" y2="81" stroke-width="6" stroke="black" stroke-linecap="round" />
	<line x1="125" y1="94" x2="150" y2="94" stroke-width="6" stroke="black" stroke-linecap="round" />
	
	<circle cx="52.5" cy="120" r="4" stroke="black" stroke-width="4" fill="none"/>
	<circle cx="137.5" cy="120" r="4" stroke="black" stroke-width="4" fill="none"/>
	
	<line x1="15" y1="155" x2="40" y2="155" stroke-width="5" stroke="black" stroke-linecap="round" />
	<circle cx="52.5" cy="155" r="5" stroke="black" stroke-width="4" fill="none"/>
	<line x1="52.5" y1="140" x2="52.5" y2="150" stroke-width="5" stroke="black" />
	
	<circle cx="68" cy="155" r="2.5" stroke="black" stroke-width="3" fill="black"/>
	<line x1="80" y1="155" x2="125" y2="155" stroke-width="5" stroke="black" stroke-linecap="round" />
	
	<line x1="137.5" y1="140" x2="137.5" y2="150" stroke-width="5" stroke="black" />
	<circle cx="137.5" cy="155" r="5" stroke="black" stroke-width="4" fill="none"/>
	
	<line x1="150" y1="155" x2="175" y2="155" stroke-width="5" stroke="black" stroke-linecap="round" />
</svg>