<?xml version="1.0" standalone="no"?>
<!DOCTYPE svg PUBLIC "-//W3C//DTD SVG 20010904//EN"
 "http://www.w3.org/TR/2001/REC-SVG-20010904/DTD/svg10.dtd">
<svg version="1.0" xmlns="http://www.w3.org/2000/svg"
 width="260.000000pt" height="260.000000pt" viewBox="0 0 260.000000 260.000000"
 preserveAspectRatio="xMidYMid meet">
<metadata>
Created by potrace 1.11, written by Peter Selinger 2001-2013
</metadata>
<g transform="translate(0.000000,260.000000) scale(0.100000,-0.100000)"
fill="#000000" stroke="none">
<path d="M1746 2282 c-3 -5 1 -9 9 -9 8 0 12 4 9 9 -3 4 -7 8 -9 8 -2 0 -6 -4
-9 -8z"/>
<path d="M1810 2280 c0 -5 5 -10 11 -10 5 0 7 5 4 10 -3 6 -8 10 -11 10 -2 0
-4 -4 -4 -10z"/>
<path d="M1870 2280 c0 -5 5 -10 11 -10 5 0 7 5 4 10 -3 6 -8 10 -11 10 -2 0
-4 -4 -4 -10z"/>
<path d="M1935 2280 c-3 -5 -1 -10 4 -10 6 0 11 5 11 10 0 6 -2 10 -4 10 -3 0
-8 -4 -11 -10z"/>
<path d="M1975 2280 c-3 -5 -1 -10 4 -10 6 0 11 5 11 10 0 6 -2 10 -4 10 -3 0
-8 -4 -11 -10z"/>
<path d="M2015 2280 c-3 -5 -1 -10 4 -10 6 0 11 5 11 10 0 6 -2 10 -4 10 -3 0
-8 -4 -11 -10z"/>
<path d="M1696 2256 c3 -8 0 -17 -7 -22 -7 -4 -10 -3 -6 3 3 5 0 10 -8 10 -10
0 -11 -5 -5 -17 13 -24 -11 -55 -36 -47 -17 6 -17 6 -3 -6 15 -12 15 -14 -2
-36 -10 -12 -22 -20 -27 -17 -5 3 -9 -1 -9 -9 0 -8 4 -12 9 -9 14 9 -173 -280
-190 -292 -9 -7 -20 -10 -24 -8 -4 2 -9 0 -12 -5 -7 -11 12 -9 34 3 8 4 6 -1
-5 -11 -11 -10 -21 -25 -23 -33 -2 -8 -13 -23 -25 -33 -12 -10 -16 -16 -9 -12
11 6 12 3 3 -13 -6 -12 -16 -24 -21 -27 -5 -3 -17 -32 -26 -63 -16 -55 -43
-103 -31 -54 3 13 1 20 -5 16 -5 -3 -8 0 -7 7 2 8 -5 31 -14 53 -20 44 -20 49
-8 41 5 -3 13 -1 16 5 4 6 3 10 -2 9 -25 -4 -38 9 -88 86 -30 47 -55 87 -55
90 0 2 8 6 18 9 10 3 8 4 -7 3 -13 -1 -26 4 -29 12 -3 8 0 11 6 7 6 -3 13 -2
16 3 4 5 -2 8 -11 6 -26 -4 -36 5 -23 20 8 10 6 13 -7 11 -12 -1 -19 7 -21 23
-3 16 0 21 9 16 8 -5 10 -4 5 4 -6 9 -11 9 -22 0 -9 -7 -14 -8 -14 -1 0 5 -8
8 -19 5 -10 -3 -22 0 -25 6 -4 6 -13 11 -19 11 -7 0 -6 -4 3 -10 9 -6 -27 -9
-103 -8 -65 0 -120 5 -123 9 -3 5 -11 9 -17 9 -7 0 -6 -4 3 -10 11 -7 3 -10
-28 -10 -30 0 -41 -3 -36 -12 5 -8 2 -9 -10 -5 -10 4 -15 3 -11 -3 3 -6 12
-10 19 -10 8 0 20 -8 27 -17 12 -14 12 -16 -2 -11 -9 4 -16 1 -16 -7 0 -7 7
-11 16 -8 11 2 30 -18 59 -61 41 -63 53 -94 30 -80 -7 4 -8 3 -4 -4 4 -6 13
-9 20 -6 8 3 17 1 21 -5 3 -6 0 -11 -7 -12 -7 0 -2 -5 12 -10 20 -8 22 -12 10
-19 -13 -8 -13 -10 1 -10 17 0 79 -86 79 -110 0 -7 3 -11 6 -7 9 9 75 -93 67
-106 -3 -5 -1 -7 4 -4 10 7 63 -63 63 -83 0 -5 3 -10 8 -10 4 0 13 -9 20 -21
11 -17 11 -20 0 -14 -7 3 -4 0 6 -9 19 -15 18 -16 -5 -25 -13 -5 -18 -10 -10
-10 11 -1 11 -4 1 -16 -14 -16 -34 -10 -24 7 4 7 2 8 -4 4 -9 -5 -8 -12 1 -27
10 -17 9 -23 -12 -40 -13 -10 -21 -19 -18 -19 10 0 -124 -194 -146 -213 -12
-10 -16 -16 -9 -12 6 3 12 2 12 -3 0 -6 -7 -12 -15 -16 -8 -3 -15 -12 -15 -21
0 -8 -7 -16 -15 -16 -28 -3 -33 -4 -41 -11 -3 -4 3 -5 15 -3 15 3 21 0 18 -8
-3 -7 -9 -11 -14 -10 -5 1 -10 -4 -10 -10 0 -7 -12 -31 -28 -55 -24 -36 -30
-40 -44 -30 -14 12 -14 11 -3 -4 12 -15 11 -22 -8 -48 -13 -18 -28 -29 -36
-26 -7 3 -16 0 -20 -6 -4 -6 -3 -8 4 -4 25 15 19 -14 -15 -64 -27 -40 -37 -49
-44 -39 -7 9 -7 5 -3 -14 4 -17 2 -27 -6 -27 -6 0 -9 4 -5 9 3 5 0 13 -7 17
-7 4 -10 4 -6 -1 4 -4 -1 -15 -10 -24 -10 -9 -12 -12 -5 -7 24 16 26 -2 4 -32
-12 -17 -21 -33 -21 -37 0 -7 -26 -35 -33 -35 -3 0 -3 10 -1 23 4 20 4 20 -5
2 -5 -12 -5 -25 0 -31 6 -7 3 -16 -7 -24 -25 -21 -49 -73 -35 -78 6 -2 9 -8 5
-13 -3 -5 10 -7 29 -4 20 4 38 1 42 -5 3 -5 12 -10 18 -10 7 0 6 4 -3 10 -26
16 211 9 240 -8 24 -14 24 -14 5 3 -20 17 -20 17 1 13 15 -4 27 4 43 28 13 19
28 31 36 28 8 -3 18 5 25 18 11 22 10 22 -4 4 -23 -29 -31 -11 -10 21 11 15
24 37 30 48 7 12 20 19 35 18 16 -1 18 0 6 3 -20 6 -17 31 3 26 7 -2 10 3 7
12 -4 9 10 39 29 68 35 51 56 78 39 49 -5 -10 -4 -12 4 -7 6 4 8 12 5 18 -4 6
1 17 11 25 11 7 16 13 12 13 -4 0 -3 9 3 20 6 11 17 20 25 20 8 0 15 5 15 11
0 5 -5 7 -11 3 -13 -7 41 78 55 88 6 4 13 5 17 2 4 -2 11 1 15 7 4 7 3 9 -4 5
-6 -3 -13 -2 -17 4 -3 5 -1 10 6 10 7 0 9 3 6 6 -8 8 30 64 55 82 9 7 15 19
12 26 -3 8 -1 17 5 20 6 4 8 13 4 21 -3 8 0 15 6 15 6 0 8 7 4 17 -4 10 -2 14
4 10 7 -5 9 0 6 12 -3 10 1 22 9 26 7 5 10 5 6 1 -3 -4 0 -26 8 -49 12 -32 12
-42 2 -49 -9 -5 -8 -8 6 -8 12 0 16 -5 12 -16 -3 -8 -2 -13 3 -10 11 7 23 -22
14 -36 -3 -6 -1 -8 4 -5 6 4 17 -1 24 -10 12 -14 11 -15 -9 -9 -13 5 -22 3
-22 -3 0 -6 3 -10 8 -10 24 4 40 -5 60 -37 12 -19 20 -40 16 -46 -4 -6 -3 -8
4 -4 6 3 16 -7 24 -24 7 -16 17 -30 21 -30 5 0 5 -4 2 -10 -3 -5 -1 -10 6 -10
7 0 9 -3 6 -7 -4 -3 2 -12 13 -20 11 -8 20 -21 20 -29 0 -8 4 -14 9 -14 8 0
37 -60 34 -70 -1 -3 11 -5 25 -4 15 0 33 -6 40 -15 11 -14 11 -14 6 1 -4 13
-1 18 11 18 10 0 13 -5 9 -12 -4 -6 -3 -8 4 -4 5 3 12 3 15 -1 2 -5 2 -2 1 5
-2 6 4 12 12 12 9 0 12 -5 8 -12 -5 -9 -2 -8 9 1 15 12 20 11 40 -5 20 -18 21
-18 7 -1 -12 17 -12 18 6 15 10 -1 25 -10 32 -18 10 -13 11 -13 6 3 -5 13 -1
17 20 17 15 0 24 -5 22 -13 -1 -6 -1 -9 1 -4 3 4 10 4 15 1 7 -4 8 -2 4 4 -11
19 25 14 48 -6 16 -13 18 -14 8 -1 -11 14 -9 17 13 16 13 0 22 -3 19 -8 -3 -5
0 -9 6 -9 16 0 8 33 -12 48 -10 7 -18 17 -18 22 0 5 8 11 18 14 10 3 8 4 -7 3
-13 -1 -26 4 -29 12 -3 8 0 11 6 7 6 -3 13 -2 17 3 3 6 -4 8 -16 6 -15 -3 -23
2 -26 15 -3 11 -9 20 -14 20 -5 0 -9 7 -9 15 0 8 -4 15 -9 15 -5 0 -14 14 -21
30 -7 17 -15 30 -19 30 -13 0 -62 90 -55 102 4 7 4 10 0 6 -8 -7 -29 10 -55
45 -12 15 -12 17 1 12 9 -4 15 0 15 8 0 8 -7 13 -16 10 -23 -5 -64 56 -49 74
8 10 7 12 -5 7 -11 -4 -24 7 -43 37 -15 24 -33 49 -40 56 -7 7 -16 22 -19 33
-3 11 -10 20 -15 20 -4 0 -11 11 -14 25 -4 14 -11 25 -17 25 -6 0 -7 5 -4 10
3 6 1 10 -4 10 -23 0 -9 39 34 96 24 32 45 65 45 72 0 6 4 12 8 12 4 0 14 -6
21 -12 11 -11 12 -9 3 8 -12 23 7 62 24 51 6 -3 16 -1 24 5 12 8 12 9 -2 4
-23 -7 -32 8 -14 23 11 9 15 9 18 -1 3 -8 7 -6 11 6 4 10 3 15 -3 11 -17 -11
-11 9 15 47 15 22 31 35 39 32 7 -3 19 3 27 13 13 16 12 17 -4 4 -9 -8 -21
-11 -24 -7 -4 4 -3 10 3 14 6 4 13 12 15 17 13 35 106 154 117 150 6 -2 12 0
12 5 0 6 -5 10 -11 10 -5 0 -7 5 -4 10 4 6 11 8 16 5 5 -3 7 0 4 7 -3 7 6 25
20 40 14 15 25 31 25 36 0 4 5 13 12 20 9 9 15 9 27 -1 14 -10 14 -10 3 5 -12
15 -11 22 9 50 28 40 51 58 63 51 5 -4 6 -1 2 6 -6 9 -11 9 -24 -1 -9 -7 -3 4
12 25 20 26 34 36 45 32 13 -5 13 -4 4 6 -15 15 13 69 36 69 11 0 9 4 -6 15
-25 18 -360 27 -367 10 -3 -5 -5 -4 -5 3 -1 6 -5 12 -11 12 -5 0 -7 -6 -4 -14z"/>
<path d="M2066 2184 c-5 -14 -4 -15 9 -4 17 14 19 20 6 20 -5 0 -12 -7 -15
-16z"/>
<path d="M1965 2040 c-3 -6 1 -7 9 -4 18 7 21 14 7 14 -6 0 -13 -4 -16 -10z"/>
<path d="M695 2000 c-3 -5 -1 -10 4 -10 6 0 11 5 11 10 0 6 -2 10 -4 10 -3 0
-8 -4 -11 -10z"/>
<path d="M815 2000 c-3 -5 -1 -10 4 -10 6 0 11 5 11 10 0 6 -2 10 -4 10 -3 0
-8 -4 -11 -10z"/>
<path d="M930 2000 c0 -5 5 -10 11 -10 5 0 7 5 4 10 -3 6 -8 10 -11 10 -2 0
-4 -4 -4 -10z"/>
<path d="M1510 1990 c-6 -11 -8 -20 -6 -20 3 0 10 9 16 20 6 11 8 20 6 20 -3
0 -10 -9 -16 -20z"/>
<path d="M1464 1915 c-4 -8 -11 -12 -17 -8 -6 3 -7 1 -3 -5 10 -16 14 -15 26
8 6 11 8 20 5 20 -3 0 -8 -7 -11 -15z"/>
<path d="M1873 1905 c0 -8 4 -12 9 -9 5 3 6 10 3 15 -9 13 -12 11 -12 -6z"/>
<path d="M735 1831 c-6 -11 13 -26 22 -17 4 3 1 6 -6 6 -7 0 -9 5 -6 10 3 6 4
10 1 10 -3 0 -7 -4 -11 -9z"/>
<path d="M1170 1800 c0 -5 5 -10 11 -10 5 0 7 5 4 10 -3 6 -8 10 -11 10 -2 0
-4 -4 -4 -10z"/>
<path d="M830 1680 c0 -5 5 -10 11 -10 5 0 7 5 4 10 -3 6 -8 10 -11 10 -2 0
-4 -4 -4 -10z"/>
<path d="M1300 1670 c-6 -11 -8 -20 -6 -20 3 0 10 9 16 20 6 11 8 20 6 20 -3
0 -10 -9 -16 -20z"/>
<path d="M1255 1661 c-3 -5 -2 -12 3 -15 5 -3 9 1 9 9 0 17 -3 19 -12 6z"/>
<path d="M856 1647 c3 -10 9 -15 12 -12 3 3 0 11 -7 18 -10 9 -11 8 -5 -6z"/>
<path d="M1665 1620 c-3 -6 1 -7 9 -4 18 7 21 14 7 14 -6 0 -13 -4 -16 -10z"/>
<path d="M906 1558 c3 -4 9 -8 15 -8 5 0 9 4 9 8 0 5 -7 9 -15 9 -8 0 -12 -4
-9 -9z"/>
<path d="M930 1519 c0 -5 5 -7 10 -4 6 3 10 8 10 11 0 2 -4 4 -10 4 -5 0 -10
-5 -10 -11z"/>
<path d="M1606 1517 c3 -10 9 -15 12 -12 3 3 0 11 -7 18 -10 9 -11 8 -5 -6z"/>
<path d="M998 1433 c7 -3 16 -2 19 1 4 3 -2 6 -13 5 -11 0 -14 -3 -6 -6z"/>
<path d="M1510 1371 c0 -7 -4 -10 -8 -7 -5 3 -9 -2 -9 -10 0 -13 2 -13 16 0 8
9 12 19 8 22 -4 4 -7 2 -7 -5z"/>
<path d="M1005 1240 c-3 -5 -1 -10 4 -10 6 0 11 5 11 10 0 6 -2 10 -4 10 -3 0
-8 -4 -11 -10z"/>
<path d="M1565 1200 c-3 -5 -1 -10 4 -10 6 0 11 5 11 10 0 6 -2 10 -4 10 -3 0
-8 -4 -11 -10z"/>
<path d="M940 1140 c-8 -5 -10 -10 -5 -10 6 0 17 5 25 10 8 5 11 10 5 10 -5 0
-17 -5 -25 -10z"/>
<path d="M1616 1118 c3 -5 10 -6 15 -3 13 9 11 12 -6 12 -8 0 -12 -4 -9 -9z"/>
<path d="M900 1080 c-9 -6 -10 -10 -3 -10 6 0 15 5 18 10 8 12 4 12 -15 0z"/>
<path d="M1655 1069 c-4 -6 -5 -12 -2 -15 2 -3 7 2 10 11 7 17 1 20 -8 4z"/>
<path d="M1275 1040 c-3 -5 -1 -10 4 -10 6 0 11 5 11 10 0 6 -2 10 -4 10 -3 0
-8 -4 -11 -10z"/>
<path d="M1716 973 c-6 -14 -5 -15 5 -6 7 7 10 15 7 18 -3 3 -9 -2 -12 -12z"/>
<path d="M1210 930 c-7 -14 -7 -20 0 -20 5 0 10 7 10 16 0 9 5 12 12 8 7 -4 8
-3 4 4 -10 16 -14 15 -26 -8z"/>
<path d="M1360 880 c8 -5 20 -10 25 -10 6 0 3 5 -5 10 -8 5 -19 10 -25 10 -5
0 -3 -5 5 -10z"/>
<path d="M1796 857 c3 -10 9 -15 12 -12 3 3 0 11 -7 18 -10 9 -11 8 -5 -6z"/>
<path d="M1391 844 c0 -11 3 -14 6 -6 3 7 2 16 -1 19 -3 4 -6 -2 -5 -13z"/>
<path d="M736 842 c-3 -5 1 -9 9 -9 8 0 12 4 9 9 -3 4 -7 8 -9 8 -2 0 -6 -4
-9 -8z"/>
<path d="M1410 802 c0 -5 7 -9 15 -9 8 0 12 4 9 9 -3 4 -9 8 -15 8 -5 0 -9 -4
-9 -8z"/>
<path d="M1855 780 c3 -5 8 -10 11 -10 2 0 4 5 4 10 0 6 -5 10 -11 10 -5 0 -7
-4 -4 -10z"/>
<path d="M1510 663 c5 -2 8 -9 4 -14 -3 -5 0 -9 6 -9 15 0 7 23 -8 26 -7 1 -8
0 -2 -3z"/>
<path d="M610 645 c-7 -9 -8 -15 -2 -15 5 0 12 7 16 15 3 8 4 15 2 15 -2 0 -9
-7 -16 -15z"/>
<path d="M1010 599 c0 -5 5 -7 10 -4 6 3 10 8 10 11 0 2 -4 4 -10 4 -5 0 -10
-5 -10 -11z"/>
<path d="M975 571 c-3 -5 -2 -12 3 -15 5 -3 9 1 9 9 0 17 -3 19 -12 6z"/>
<path d="M845 360 c-3 -5 -1 -10 4 -10 6 0 11 5 11 10 0 6 -2 10 -4 10 -3 0
-8 -4 -11 -10z"/>
<path d="M575 320 c3 -5 8 -10 11 -10 2 0 4 5 4 10 0 6 -5 10 -11 10 -5 0 -7
-4 -4 -10z"/>
<path d="M690 319 c0 -5 5 -7 10 -4 6 3 10 8 10 11 0 2 -4 4 -10 4 -5 0 -10
-5 -10 -11z"/>
</g>
</svg>
